<svg width="138" height="34" viewBox="0 0 138 34" fill="none" xmlns="http://www.w3.org/2000/svg">
<path d="M17.3973 0.399998C19.6373 2.224 21.3013 4.672 22.3893 7.744C23.4773 10.816 24.0213 13.984 24.0213 17.248C24.0213 20.48 23.4933 23.552 22.4373 26.464C21.3813 29.376 19.7013 31.888 17.3973 34H7.50931C5.20531 31.888 3.52531 29.376 2.46931 26.464C1.41331 23.552 0.885313 20.48 0.885313 17.248C0.885313 13.984 1.42931 10.816 2.51731 7.744C3.60531 4.672 5.26931 2.224 7.50931 0.399998H17.3973ZM10.7253 28.432H14.1813C14.9813 27.504 15.6533 26 16.1973 23.92C16.7733 21.808 17.0613 19.584 17.0613 17.248C17.0613 14.912 16.7893 12.72 16.2453 10.672C15.7013 8.592 15.0293 7.088 14.2293 6.16H10.7253C9.92531 7.088 9.23731 8.592 8.66131 10.672C8.11731 12.72 7.84531 14.912 7.84531 17.248C7.84531 19.584 8.11731 21.808 8.66131 23.92C9.23731 26 9.92531 27.504 10.7253 28.432ZM34.2449 6.16V18.16H38.5169C40.2769 16.72 41.1569 14.608 41.1569 11.824C41.1569 10.64 40.9169 9.52 40.4369 8.464C39.9889 7.408 39.4449 6.64 38.8049 6.16H34.2449ZM27.7649 34V0.399998H40.7729C42.9489 1.36 44.6609 2.832 45.9089 4.816C47.1889 6.8 47.8289 9.12 47.8289 11.776C47.8289 14.4 47.1729 16.832 45.8609 19.072C44.5489 21.312 42.6129 22.896 40.0529 23.824H34.2449V34H27.7649Z" fill="white"/>
<path d="M51.3431 34V0.399998H65.0231C66.5911 0.975998 67.9831 1.984 69.1991 3.424C70.4151 4.864 71.0231 6.608 71.0231 8.656C71.0231 12.272 69.8391 14.8 67.4711 16.24V16.432C70.4151 18.064 71.8871 20.624 71.8871 24.112C71.8871 28.112 69.8551 31.408 65.7911 34H51.3431ZM57.8711 14.272H62.6231C64.0311 13.408 64.7351 12.096 64.7351 10.336C64.7351 8.576 64.0791 7.184 62.7671 6.16H57.8711V14.272ZM57.8711 28.432H62.8151C63.3911 28.016 63.9031 27.36 64.3511 26.464C64.8311 25.568 65.0711 24.672 65.0711 23.776C65.0711 22.88 64.8791 22.064 64.4951 21.328C64.1111 20.592 63.6311 20.048 63.0551 19.696H57.8711V28.432ZM83.6459 34H78.6059C77.1979 32.208 76.2379 30.416 75.7259 28.624C75.2139 26.832 74.9579 24.592 74.9579 21.904V9.472H81.3419V22.384C81.3419 25.296 81.9179 27.488 83.0699 28.96H87.5339V9.472H93.9179V34H88.8779L88.0139 32.272C86.7979 33.424 85.3419 34 83.6459 34ZM98.0249 34V9.472H104.361V34H98.0249ZM98.0249 0.399998H104.361V6.88H98.0249V0.399998ZM114.814 0.399998V34H108.478V0.399998H114.814ZM137.507 34H132.659L131.795 32.272C131.091 32.912 130.419 33.36 129.779 33.616C129.171 33.872 128.243 34 126.995 34H122.819C121.411 32.656 120.291 30.896 119.459 28.72C118.659 26.544 118.259 24.112 118.259 21.424C118.259 18.704 118.659 16.4 119.459 14.512C120.291 12.624 121.459 10.944 122.963 9.472H127.091C128.787 9.472 130.131 9.92 131.123 10.816V0.399998H137.507V34ZM131.123 14.512H126.515C125.331 16.528 124.739 19.008 124.739 21.952C124.739 24.864 125.315 27.2 126.467 28.96H131.123V14.512Z" fill="#D84747"/>
</svg>
